<svg width="66" height="22" viewBox="0 0 66 22" fill="none" xmlns="http://www.w3.org/2000/svg">
<g clip-path="url(#clip0_4586_5430)">
<path fill-rule="evenodd" clip-rule="evenodd" d="M65.0072 12.7391C64.5677 11.9464 63.7051 11.6824 62.7288 11.6824H62.4846C61.2475 11.6824 60.3687 12.2104 60.3687 13.2506C60.385 14.241 60.857 14.6041 62.1267 14.7361L63.4125 14.8681C65.1373 15.0497 66.0002 15.4296 66.0002 16.9312C66.0002 18.549 64.7306 19.2255 62.9242 19.2255C61.2638 19.2255 60.2224 18.945 59.5878 17.9051C59.4899 17.7564 59.5062 17.6743 59.7503 17.5091C60.0104 17.344 60.092 17.3604 60.1896 17.5255C60.6291 18.3343 61.5079 18.5822 62.7125 18.5822H63.038C64.3401 18.5822 65.2348 18.0539 65.2348 17.014C65.2189 16.0233 64.7468 15.6772 63.3797 15.5449L62.1101 15.4132C60.4503 15.2313 59.6037 14.835 59.6037 13.3331C59.6037 11.7156 60.8733 11.0388 62.5987 11.0388C63.933 11.0388 64.9907 11.3192 65.6094 12.3592C65.7069 12.5079 65.691 12.6071 65.4468 12.7555C65.1864 12.9367 65.1051 12.9039 65.0072 12.7391ZM57.5372 9.91617C57.3093 9.91617 57.1789 9.8505 57.1139 9.78417C57.0164 9.68533 56.9839 9.553 56.9839 9.37175C56.9839 9.19017 57.0164 9.07459 57.1139 8.959C57.1789 8.893 57.3093 8.84375 57.5372 8.84375C57.7655 8.84375 57.8955 8.893 57.9605 8.959C58.0581 9.07459 58.0909 9.19017 58.0909 9.37175C58.0909 9.553 58.0581 9.68533 57.9605 9.78417C57.8955 9.8505 57.7655 9.91617 57.5372 9.91617ZM54.8689 19.1266C54.5597 19.1266 54.5106 19.0606 54.5106 18.879V15.2645C54.5106 13.3166 54.3318 12.7059 53.9573 12.3263C53.5834 11.9464 52.9156 11.7484 51.7601 11.7484H51.4834C50.3279 11.7484 49.6608 11.9464 49.2866 12.3263C48.9117 12.7059 48.7329 13.3166 48.7329 15.2645V18.879C48.7329 19.0606 48.6844 19.1266 48.3749 19.1266C48.0657 19.1266 48.017 19.0606 48.017 18.879V15.0497C48.017 13.5146 48.1958 12.5739 48.5866 12.0456C49.1562 11.3028 50.1654 11.0552 51.6138 11.0552C53.0622 11.0552 54.0877 11.3028 54.6573 12.0456C55.0477 12.5739 55.2269 13.5146 55.2269 15.0497V18.879C55.2269 19.0606 55.1781 19.1266 54.8689 19.1266ZM45.7229 19.1266C45.3974 19.1266 45.3487 19.0606 45.3487 18.879V15.2645C45.3487 13.3166 45.1861 12.7059 44.8607 12.3263C44.5349 11.9464 43.949 11.7484 42.9236 11.7484H42.6632C41.3936 11.7484 40.4822 12.0952 40.4822 13.0855V18.879C40.4822 19.0606 40.4335 19.1266 40.1243 19.1266C39.8151 19.1266 39.7501 19.0606 39.7501 18.879V13.0855C39.7501 12.0952 38.8384 11.7484 37.5691 11.7484H37.325C36.2995 11.7484 35.7133 11.9464 35.3716 12.3263C35.0462 12.7059 34.8836 13.3166 34.8836 15.2645V18.879C34.8836 19.0606 34.8348 19.1266 34.5257 19.1266C34.2165 19.1266 34.1674 19.0606 34.1674 18.879V15.0497C34.1674 13.5146 34.3299 12.5739 34.6882 12.0456C35.2091 11.3028 36.1207 11.0552 37.4388 11.0552C38.7084 11.0552 39.6685 11.2864 40.1243 12.0292C40.5638 11.2864 41.5399 11.0552 42.7935 11.0552C44.1116 11.0552 45.0232 11.3028 45.56 12.0456C45.9183 12.5739 46.0812 13.5146 46.0812 15.0497V18.879C46.0812 19.0606 46.0321 19.1266 45.7229 19.1266ZM28.5366 19.2255C27.1532 19.2255 26.0627 18.8955 25.5093 18.2519C24.9235 17.5751 24.598 16.4856 24.598 15.1321C24.598 13.7954 24.9235 12.7059 25.5093 12.0292C26.0627 11.3688 27.1532 11.0388 28.5366 11.0388C29.9037 11.0388 30.9942 11.3688 31.5475 12.0292C32.1334 12.7059 32.4588 13.7954 32.4588 15.1321C32.4588 16.4856 32.1334 17.5751 31.5475 18.2519C30.9942 18.8955 29.9037 19.2255 28.5366 19.2255ZM30.9617 12.4583C30.6196 12.0456 29.8062 11.6992 28.6669 11.6992H28.3899C27.2507 11.6992 26.4369 12.0456 26.1115 12.4583C25.6885 12.9535 25.363 13.7954 25.363 15.1321C25.363 16.4856 25.6885 17.3111 26.1115 17.8063C26.4369 18.2355 27.2507 18.5822 28.3899 18.5822H28.6669C29.8062 18.5822 30.6196 18.2355 30.9617 17.8063C31.3684 17.3111 31.6942 16.4856 31.6942 15.1321C31.6942 13.7954 31.3684 12.9535 30.9617 12.4583ZM11.5908 13.0385C10.95 13.0385 10.7939 12.6767 10.7939 11.7569V11.7566C10.7939 10.8372 10.95 10.4754 11.5908 10.4754C12.2316 10.4754 12.3877 10.8372 12.3877 11.7566V11.7569C12.3877 12.6767 12.2316 13.0385 11.5908 13.0385ZM57.5372 11.138C57.8467 11.138 57.8955 11.2204 57.8955 11.3852V18.879C57.8955 19.0606 57.8467 19.1266 57.5372 19.1266C57.228 19.1266 57.1789 19.0606 57.1789 18.879V11.3852C57.1789 11.2204 57.228 11.138 57.5372 11.138Z" fill="#54747D"/>
<path fill-rule="evenodd" clip-rule="evenodd" d="M19.1771 21.9984C18.1643 21.9984 17.3795 21.7505 16.1775 21.0511C15.2106 20.488 14.3067 19.8635 13.4913 19.1946C13.3642 19.0902 13.2969 18.928 13.3125 18.7628C13.3278 18.5973 13.4243 18.4512 13.5687 18.373C16.4746 16.8015 16.921 16.5598 14.7908 12.1428C13.5238 9.51295 13.1623 8.99743 11.8615 8.99743C11.0067 8.99743 10.3298 9.29361 9.85058 9.8771C9.15222 10.7272 8.91716 12.1277 9.20554 13.7195C9.25398 13.9885 9.07842 14.2469 8.81312 14.2961C8.54944 14.3451 8.29357 14.1671 8.2448 13.8982C7.90407 12.0167 8.21587 10.3201 9.1002 9.24337C9.76443 8.43462 10.7193 8.0071 11.8615 8.0071C13.8854 8.0071 14.481 9.24402 15.668 11.7077C17.9296 16.397 17.3778 17.3633 14.6884 18.883C15.3049 19.3476 15.9668 19.7866 16.6639 20.1925C17.8489 20.8824 18.4397 21.0084 19.1771 21.0084C19.9353 21.0084 20.8397 20.7671 20.8397 19.6185C20.8397 18.5786 20.5055 16.108 18.2693 11.245C16.408 7.19408 15.2554 6.02283 13.1308 6.02283C12.0149 6.02283 11.2385 6.26943 10.0206 6.78758C9.89643 6.8411 9.75597 6.83913 9.6321 6.78331C9.50888 6.72716 9.41427 6.62176 9.37038 6.49271C9.25919 6.16632 9.161 5.86785 9.07061 5.59235C8.53221 3.95746 8.28642 3.2111 7.27886 2.20961C6.38932 1.32468 3.58904 0.703755 1.0352 1.12011C0.711047 3.55292 1.74039 6.51373 2.63253 7.33692C3.6144 8.24319 4.75135 8.6139 7.13678 8.80501C7.40566 8.82668 7.60626 9.06474 7.5848 9.33761C7.56399 9.61014 7.3247 9.81176 7.05973 9.79205C4.82808 9.61343 3.28082 9.27423 1.9748 8.06916C0.717225 6.90874 -0.386243 3.31847 0.129727 0.600979C0.167442 0.402979 0.319274 0.247994 0.514023 0.208591C3.28732 -0.347648 6.69819 0.244054 7.96259 1.50265C9.13791 2.67095 9.4432 3.59725 9.99689 5.27877C10.0385 5.40552 10.0817 5.53686 10.1269 5.67346C11.0568 5.29847 11.9376 5.0325 13.1308 5.0325C15.9892 5.0325 17.3505 6.90086 19.1543 10.8264C21.3541 15.6102 21.8161 18.2483 21.8161 19.6185C21.8161 21.0866 20.8046 21.9984 19.1771 21.9984ZM19.4726 9.46862C21.4409 9.31101 22.8067 9.01089 23.9635 7.9434C25.0764 6.91596 26.0544 3.74238 25.5999 1.34176C25.5625 1.14376 25.4107 0.98877 25.2153 0.949696C22.7684 0.4588 19.7538 0.98483 18.6335 2.09993C17.7082 3.01934 17.4016 3.73516 16.9659 5.04071C16.8794 5.29946 17.0163 5.58053 17.2718 5.6682C17.5271 5.75555 17.8044 5.61698 17.8909 5.3579C18.2931 4.15283 18.535 3.58444 19.3169 2.80689C20.0806 2.04674 22.4836 1.51382 24.6931 1.86155C24.9558 3.96599 24.0724 6.50387 23.3065 7.21116C22.4572 7.99429 21.4705 8.3151 19.3955 8.48158C19.1267 8.50325 18.9261 8.74131 18.9475 9.01417C18.9674 9.27358 19.1813 9.47026 19.4333 9.47026C19.4466 9.47026 19.4596 9.46961 19.4726 9.46862Z" fill="#00FEB7"/>
<path d="M19.1771 21.9984C18.1643 21.9984 17.3795 21.7505 16.1775 21.0511C15.2106 20.488 14.3067 19.8635 13.4913 19.1946C13.3642 19.0902 13.2969 18.928 13.3125 18.7628C13.3278 18.5973 13.4243 18.4512 13.5687 18.373C16.4746 16.8015 16.921 16.5598 14.7908 12.1428C13.5238 9.51295 13.1623 8.99743 11.8615 8.99743C11.0067 8.99743 10.3298 9.29361 9.85058 9.8771C9.15222 10.7272 8.91716 12.1277 9.20554 13.7195C9.25398 13.9885 9.07842 14.2469 8.81312 14.2961C8.54944 14.3451 8.29357 14.1671 8.2448 13.8982C7.90407 12.0167 8.21587 10.3201 9.1002 9.24337C9.76443 8.43462 10.7193 8.0071 11.8615 8.0071C13.8854 8.0071 14.481 9.24402 15.668 11.7077C17.9296 16.397 17.3778 17.3633 14.6884 18.883C15.3049 19.3476 15.9668 19.7866 16.6639 20.1925C17.8489 20.8824 18.4397 21.0084 19.1771 21.0084C19.9353 21.0084 20.8397 20.7671 20.8397 19.6185C20.8397 18.5786 20.5055 16.108 18.2693 11.245C16.408 7.19408 15.2554 6.02283 13.1308 6.02283C12.0149 6.02283 11.2385 6.26943 10.0206 6.78758C9.89643 6.8411 9.75597 6.83913 9.6321 6.78331C9.50888 6.72716 9.41427 6.62176 9.37038 6.49271C9.25919 6.16632 9.161 5.86785 9.07061 5.59235C8.53221 3.95746 8.28642 3.2111 7.27886 2.20961C6.38932 1.32468 3.58904 0.703755 1.0352 1.12011C0.711047 3.55292 1.74039 6.51373 2.63253 7.33692C3.6144 8.24319 4.75135 8.6139 7.13678 8.80501C7.40566 8.82668 7.60626 9.06474 7.5848 9.33761C7.56399 9.61014 7.3247 9.81176 7.05973 9.79205C4.82808 9.61343 3.28082 9.27423 1.9748 8.06916C0.717225 6.90874 -0.386243 3.31847 0.129727 0.600979C0.167442 0.402979 0.319274 0.247994 0.514023 0.208591C3.28732 -0.347648 6.69819 0.244054 7.96259 1.50265C9.13791 2.67095 9.4432 3.59725 9.99689 5.27877C10.0385 5.40552 10.0817 5.53686 10.1269 5.67346C11.0568 5.29847 11.9376 5.0325 13.1308 5.0325C15.9892 5.0325 17.3505 6.90086 19.1543 10.8264C21.3541 15.6102 21.8161 18.2483 21.8161 19.6185C21.8161 21.0866 20.8046 21.9984 19.1771 21.9984ZM19.4726 9.46862C21.4409 9.31101 22.8067 9.01089 23.9635 7.9434C25.0764 6.91596 26.0544 3.74238 25.5999 1.34176C25.5625 1.14376 25.4107 0.98877 25.2153 0.949696C22.7684 0.4588 19.7538 0.98483 18.6335 2.09993C17.7082 3.01934 17.4016 3.73516 16.9659 5.04071C16.8794 5.29946 17.0163 5.58053 17.2718 5.6682C17.5271 5.75555 17.8044 5.61698 17.8909 5.3579C18.2931 4.15283 18.535 3.58444 19.3169 2.80689C20.0806 2.04674 22.4836 1.51382 24.6931 1.86155C24.9558 3.96599 24.0724 6.50387 23.3065 7.21116C22.4572 7.99429 21.4705 8.3151 19.3955 8.48158C19.1267 8.50325 18.9261 8.74131 18.9475 9.01417C18.9674 9.27358 19.1813 9.47026 19.4333 9.47026C19.4466 9.47026 19.4596 9.46961 19.4726 9.46862Z" fill="#54747D"/>
</g>
<defs>
<clipPath id="clip0_4586_5430">
<rect width="66" height="22" fill="white"/>
</clipPath>
</defs>
</svg>
