<svg width="163" height="49" viewBox="0 0 163 49" fill="none" xmlns="http://www.w3.org/2000/svg">
<g filter="url(#filter0_d_407_5313)">
<rect x="2.5" y="2.5" width="158.5" height="44" rx="4" fill="white" shape-rendering="crispEdges"/>
<path d="M62.5308 30.924C62.183 31.7275 61.7713 32.4672 61.2942 33.1472C60.644 34.0743 60.1116 34.716 59.7013 35.0724C59.0653 35.6573 58.3838 35.9568 57.6541 35.9739C57.1302 35.9739 56.4985 35.8248 55.763 35.5224C55.0252 35.2214 54.3472 35.0724 53.7272 35.0724C53.077 35.0724 52.3796 35.2214 51.6337 35.5224C50.8866 35.8248 50.2848 35.9824 49.8247 35.998C49.1249 36.0278 48.4274 35.7197 47.7312 35.0724C47.2868 34.6848 46.731 34.0204 46.0651 33.0791C45.3507 32.0739 44.7634 30.9084 44.3033 29.5795C43.8105 28.1442 43.5635 26.7543 43.5635 25.4087C43.5635 23.8673 43.8965 22.5379 44.5637 21.4238C45.088 20.529 45.7855 19.8231 46.6584 19.3049C47.5314 18.7867 48.4747 18.5227 49.4905 18.5058C50.0463 18.5058 50.7752 18.6777 51.681 19.0156C52.5842 19.3546 53.1641 19.5265 53.4184 19.5265C53.6085 19.5265 54.2528 19.3255 55.3449 18.9247C56.3778 18.5531 57.2495 18.3992 57.9636 18.4598C59.8987 18.6159 61.3524 19.3788 62.3193 20.753C60.5886 21.8016 59.7326 23.2703 59.7496 25.1544C59.7652 26.622 60.2976 27.8432 61.3439 28.8129C61.8181 29.2629 62.3477 29.6107 62.9368 29.8578C62.8091 30.2283 62.6742 30.5832 62.5308 30.924ZM58.0928 13.4601C58.0928 14.6104 57.6726 15.6844 56.8349 16.6785C55.8241 17.8602 54.6014 18.5431 53.2756 18.4354C53.2587 18.2974 53.2489 18.1521 53.2489 17.9995C53.2489 16.8953 53.7296 15.7135 54.5833 14.7472C55.0095 14.258 55.5515 13.8512 56.2088 13.5267C56.8647 13.2071 57.4852 13.0303 58.0687 13C58.0857 13.1538 58.0928 13.3076 58.0928 13.4601V13.4601Z" fill="#0D0D0D"/>
<path d="M83.06 31.5L81.512 27.522H76.418L74.888 31.5H73.25L78.272 18.594H79.73L84.734 31.5H83.06ZM79.586 22.194C79.55 22.098 79.49 21.924 79.406 21.672C79.322 21.42 79.238 21.162 79.154 20.898C79.082 20.622 79.022 20.412 78.974 20.268C78.914 20.508 78.848 20.754 78.776 21.006C78.716 21.246 78.65 21.468 78.578 21.672C78.518 21.876 78.464 22.05 78.416 22.194L76.958 26.082H81.026L79.586 22.194ZM90.8661 21.672C92.0541 21.672 93.0081 22.086 93.7281 22.914C94.4601 23.742 94.8261 24.99 94.8261 26.658C94.8261 27.75 94.6581 28.674 94.3221 29.43C93.9981 30.174 93.5361 30.738 92.9361 31.122C92.3481 31.494 91.6521 31.68 90.8481 31.68C90.3561 31.68 89.9181 31.614 89.5341 31.482C89.1501 31.35 88.8201 31.182 88.5441 30.978C88.2801 30.762 88.0521 30.528 87.8601 30.276H87.7521C87.7761 30.48 87.8001 30.738 87.8241 31.05C87.8481 31.362 87.8601 31.632 87.8601 31.86V35.82H86.2761V21.852H87.5721L87.7881 23.166H87.8601C88.0521 22.89 88.2801 22.638 88.5441 22.41C88.8201 22.182 89.1441 22.002 89.5161 21.87C89.9001 21.738 90.3501 21.672 90.8661 21.672ZM90.5781 23.004C89.9301 23.004 89.4081 23.13 89.0121 23.382C88.6161 23.622 88.3281 23.988 88.1481 24.48C87.9681 24.972 87.8721 25.596 87.8601 26.352V26.658C87.8601 27.45 87.9441 28.122 88.1121 28.674C88.2801 29.226 88.5621 29.646 88.9581 29.934C89.3661 30.222 89.9181 30.366 90.6141 30.366C91.2021 30.366 91.6821 30.204 92.0541 29.88C92.4381 29.556 92.7201 29.118 92.9001 28.566C93.0921 28.002 93.1881 27.36 93.1881 26.64C93.1881 25.536 92.9721 24.654 92.5401 23.994C92.1201 23.334 91.4661 23.004 90.5781 23.004ZM101.94 21.672C103.128 21.672 104.082 22.086 104.802 22.914C105.534 23.742 105.9 24.99 105.9 26.658C105.9 27.75 105.732 28.674 105.396 29.43C105.072 30.174 104.61 30.738 104.01 31.122C103.422 31.494 102.726 31.68 101.922 31.68C101.43 31.68 100.992 31.614 100.608 31.482C100.224 31.35 99.8943 31.182 99.6183 30.978C99.3543 30.762 99.1263 30.528 98.9343 30.276H98.8263C98.8503 30.48 98.8743 30.738 98.8983 31.05C98.9223 31.362 98.9343 31.632 98.9343 31.86V35.82H97.3503V21.852H98.6463L98.8623 23.166H98.9343C99.1263 22.89 99.3543 22.638 99.6183 22.41C99.8943 22.182 100.218 22.002 100.59 21.87C100.974 21.738 101.424 21.672 101.94 21.672ZM101.652 23.004C101.004 23.004 100.482 23.13 100.086 23.382C99.6903 23.622 99.4023 23.988 99.2223 24.48C99.0423 24.972 98.9463 25.596 98.9343 26.352V26.658C98.9343 27.45 99.0183 28.122 99.1863 28.674C99.3543 29.226 99.6363 29.646 100.032 29.934C100.44 30.222 100.992 30.366 101.688 30.366C102.276 30.366 102.756 30.204 103.128 29.88C103.512 29.556 103.794 29.118 103.974 28.566C104.166 28.002 104.262 27.36 104.262 26.64C104.262 25.536 104.046 24.654 103.614 23.994C103.194 23.334 102.54 23.004 101.652 23.004ZM110.009 31.5H108.425V17.82H110.009V31.5ZM116.791 21.672C117.619 21.672 118.327 21.852 118.915 22.212C119.515 22.572 119.971 23.082 120.283 23.742C120.607 24.39 120.769 25.152 120.769 26.028V26.982H114.163C114.187 28.074 114.463 28.908 114.991 29.484C115.531 30.048 116.281 30.33 117.241 30.33C117.853 30.33 118.393 30.276 118.861 30.168C119.341 30.048 119.833 29.88 120.337 29.664V31.05C119.845 31.266 119.359 31.422 118.879 31.518C118.399 31.626 117.829 31.68 117.169 31.68C116.257 31.68 115.447 31.494 114.739 31.122C114.043 30.75 113.497 30.198 113.101 29.466C112.717 28.722 112.525 27.816 112.525 26.748C112.525 25.692 112.699 24.786 113.047 24.03C113.407 23.274 113.905 22.692 114.541 22.284C115.189 21.876 115.939 21.672 116.791 21.672ZM116.773 22.968C116.017 22.968 115.417 23.214 114.973 23.706C114.541 24.186 114.283 24.858 114.199 25.722H119.113C119.113 25.17 119.029 24.69 118.861 24.282C118.693 23.874 118.435 23.556 118.087 23.328C117.751 23.088 117.313 22.968 116.773 22.968Z" fill="#0D0D0D"/>
</g>
<defs>
<filter id="filter0_d_407_5313" x="0.5" y="0.5" width="162.5" height="48" filterUnits="userSpaceOnUse" color-interpolation-filters="sRGB">
<feFlood flood-opacity="0" result="BackgroundImageFix"/>
<feColorMatrix in="SourceAlpha" type="matrix" values="0 0 0 0 0 0 0 0 0 0 0 0 0 0 0 0 0 0 127 0" result="hardAlpha"/>
<feOffset/>
<feGaussianBlur stdDeviation="1"/>
<feComposite in2="hardAlpha" operator="out"/>
<feColorMatrix type="matrix" values="0 0 0 0 0 0 0 0 0 0 0 0 0 0 0 0 0 0 0.25 0"/>
<feBlend mode="normal" in2="BackgroundImageFix" result="effect1_dropShadow_407_5313"/>
<feBlend mode="normal" in="SourceGraphic" in2="effect1_dropShadow_407_5313" result="shape"/>
</filter>
</defs>
</svg>
