<svg width="163" height="49" viewBox="0 0 163 49" fill="none" xmlns="http://www.w3.org/2000/svg">
<g filter="url(#filter0_d_407_5304)">
<rect x="2" y="2.5" width="158.5" height="44" rx="4" fill="white" shape-rendering="crispEdges"/>
<rect width="24" height="24" transform="translate(34.75 12.5)" fill="white"/>
<path fill-rule="evenodd" clip-rule="evenodd" d="M57.79 24.7613C57.79 23.9459 57.7168 23.1618 57.5809 22.4091H46.75V26.8575H52.9391C52.6725 28.295 51.8623 29.5129 50.6443 30.3284V33.2138H54.3609C56.5355 31.2118 57.79 28.2636 57.79 24.7613Z" fill="#4285F4"/>
<path fill-rule="evenodd" clip-rule="evenodd" d="M46.75 35.9998C49.855 35.9998 52.4581 34.97 54.3609 33.2137L50.6443 30.3282C49.6145 31.0182 48.2972 31.4259 46.75 31.4259C43.7547 31.4259 41.2195 29.403 40.3152 26.6848H36.4731V29.6644C38.3654 33.4228 42.2545 35.9998 46.75 35.9998Z" fill="#34A853"/>
<path fill-rule="evenodd" clip-rule="evenodd" d="M40.3152 26.6851C40.0852 25.9951 39.9545 25.2581 39.9545 24.5001C39.9545 23.7422 40.0852 23.0051 40.3152 22.3151V19.3356H36.4732C35.6943 20.8881 35.25 22.6444 35.25 24.5001C35.25 26.3558 35.6943 28.1122 36.4732 29.6647L40.3152 26.6851Z" fill="#FBBC05"/>
<path fill-rule="evenodd" clip-rule="evenodd" d="M46.75 17.5739C48.4384 17.5739 49.9543 18.1541 51.1461 19.2936L54.4445 15.9952C52.4529 14.1395 49.8497 13 46.75 13C42.2545 13 38.3654 15.577 36.4731 19.3355L40.3152 22.315C41.2195 19.5968 43.7547 17.5739 46.75 17.5739Z" fill="#EA4335"/>
<path d="M74.076 24.714H78.522V31.014C77.826 31.242 77.124 31.41 76.416 31.518C75.708 31.626 74.904 31.68 74.004 31.68C72.672 31.68 71.55 31.416 70.638 30.888C69.726 30.348 69.03 29.586 68.55 28.602C68.082 27.606 67.848 26.43 67.848 25.074C67.848 23.73 68.112 22.566 68.64 21.582C69.168 20.598 69.924 19.836 70.908 19.296C71.904 18.744 73.104 18.468 74.508 18.468C75.228 18.468 75.906 18.534 76.542 18.666C77.19 18.798 77.79 18.984 78.342 19.224L77.73 20.628C77.274 20.424 76.758 20.25 76.182 20.106C75.618 19.962 75.03 19.89 74.418 19.89C73.398 19.89 72.522 20.1 71.79 20.52C71.058 20.94 70.5 21.54 70.116 22.32C69.732 23.088 69.54 24.006 69.54 25.074C69.54 26.094 69.702 27 70.026 27.792C70.362 28.572 70.884 29.184 71.592 29.628C72.3 30.06 73.23 30.276 74.382 30.276C74.766 30.276 75.102 30.264 75.39 30.24C75.69 30.204 75.96 30.162 76.2 30.114C76.452 30.066 76.686 30.018 76.902 29.97V26.154H74.076V24.714ZM89.7637 26.658C89.7637 27.462 89.6557 28.176 89.4397 28.8C89.2357 29.412 88.9357 29.934 88.5397 30.366C88.1557 30.798 87.6817 31.128 87.1177 31.356C86.5657 31.572 85.9477 31.68 85.2637 31.68C84.6277 31.68 84.0397 31.572 83.4997 31.356C82.9597 31.128 82.4917 30.798 82.0957 30.366C81.6997 29.934 81.3877 29.412 81.1597 28.8C80.9437 28.176 80.8357 27.462 80.8357 26.658C80.8357 25.59 81.0157 24.69 81.3757 23.958C81.7357 23.214 82.2517 22.65 82.9237 22.266C83.5957 21.87 84.3937 21.672 85.3177 21.672C86.1937 21.672 86.9617 21.87 87.6217 22.266C88.2937 22.65 88.8157 23.214 89.1877 23.958C89.5717 24.69 89.7637 25.59 89.7637 26.658ZM82.4737 26.658C82.4737 27.414 82.5697 28.074 82.7617 28.638C82.9657 29.19 83.2777 29.616 83.6977 29.916C84.1177 30.216 84.6517 30.366 85.2997 30.366C85.9477 30.366 86.4817 30.216 86.9017 29.916C87.3217 29.616 87.6277 29.19 87.8197 28.638C88.0237 28.074 88.1257 27.414 88.1257 26.658C88.1257 25.89 88.0237 25.236 87.8197 24.696C87.6157 24.156 87.3037 23.742 86.8837 23.454C86.4757 23.154 85.9417 23.004 85.2817 23.004C84.2977 23.004 83.5837 23.328 83.1397 23.976C82.6957 24.624 82.4737 25.518 82.4737 26.658ZM100.662 26.658C100.662 27.462 100.554 28.176 100.338 28.8C100.134 29.412 99.8341 29.934 99.4381 30.366C99.0541 30.798 98.5801 31.128 98.0161 31.356C97.4641 31.572 96.8461 31.68 96.1621 31.68C95.5261 31.68 94.9381 31.572 94.3981 31.356C93.8581 31.128 93.3901 30.798 92.9941 30.366C92.5981 29.934 92.2861 29.412 92.0581 28.8C91.8421 28.176 91.7341 27.462 91.7341 26.658C91.7341 25.59 91.9141 24.69 92.2741 23.958C92.6341 23.214 93.1501 22.65 93.8221 22.266C94.4941 21.87 95.2921 21.672 96.2161 21.672C97.0921 21.672 97.8601 21.87 98.5201 22.266C99.1921 22.65 99.7141 23.214 100.086 23.958C100.47 24.69 100.662 25.59 100.662 26.658ZM93.3721 26.658C93.3721 27.414 93.4681 28.074 93.6601 28.638C93.8641 29.19 94.1761 29.616 94.5961 29.916C95.0161 30.216 95.5501 30.366 96.1981 30.366C96.8461 30.366 97.3801 30.216 97.8001 29.916C98.2201 29.616 98.5261 29.19 98.7181 28.638C98.9221 28.074 99.0241 27.414 99.0241 26.658C99.0241 25.89 98.9221 25.236 98.7181 24.696C98.5141 24.156 98.2021 23.742 97.7821 23.454C97.3741 23.154 96.8401 23.004 96.1801 23.004C95.1961 23.004 94.4821 23.328 94.0381 23.976C93.5941 24.624 93.3721 25.518 93.3721 26.658ZM106.593 21.672C107.229 21.672 107.799 21.792 108.303 22.032C108.819 22.272 109.257 22.638 109.617 23.13H109.707L109.923 21.852H111.183V31.662C111.183 32.574 111.027 33.336 110.715 33.948C110.403 34.572 109.929 35.04 109.293 35.352C108.657 35.664 107.847 35.82 106.863 35.82C106.167 35.82 105.525 35.766 104.937 35.658C104.361 35.562 103.845 35.412 103.389 35.208V33.75C103.701 33.906 104.043 34.038 104.415 34.146C104.787 34.266 105.189 34.356 105.621 34.416C106.053 34.476 106.497 34.506 106.953 34.506C107.781 34.506 108.429 34.26 108.897 33.768C109.377 33.288 109.617 32.628 109.617 31.788V31.41C109.617 31.266 109.623 31.062 109.635 30.798C109.647 30.522 109.659 30.33 109.671 30.222H109.599C109.263 30.714 108.843 31.08 108.339 31.32C107.847 31.56 107.271 31.68 106.611 31.68C105.363 31.68 104.385 31.242 103.677 30.366C102.981 29.49 102.633 28.266 102.633 26.694C102.633 25.662 102.789 24.774 103.101 24.03C103.425 23.274 103.881 22.692 104.469 22.284C105.057 21.876 105.765 21.672 106.593 21.672ZM106.809 23.004C106.269 23.004 105.807 23.148 105.423 23.436C105.051 23.724 104.763 24.144 104.559 24.696C104.367 25.248 104.271 25.92 104.271 26.712C104.271 27.9 104.487 28.812 104.919 29.448C105.363 30.072 106.005 30.384 106.845 30.384C107.337 30.384 107.757 30.324 108.105 30.204C108.453 30.072 108.741 29.874 108.969 29.61C109.197 29.334 109.365 28.986 109.473 28.566C109.581 28.146 109.635 27.648 109.635 27.072V26.694C109.635 25.818 109.533 25.11 109.329 24.57C109.137 24.03 108.831 23.634 108.411 23.382C107.991 23.13 107.457 23.004 106.809 23.004ZM115.831 31.5H114.247V17.82H115.831V31.5ZM122.613 21.672C123.441 21.672 124.149 21.852 124.737 22.212C125.337 22.572 125.793 23.082 126.105 23.742C126.429 24.39 126.591 25.152 126.591 26.028V26.982H119.985C120.009 28.074 120.285 28.908 120.813 29.484C121.353 30.048 122.103 30.33 123.063 30.33C123.675 30.33 124.215 30.276 124.683 30.168C125.163 30.048 125.655 29.88 126.159 29.664V31.05C125.667 31.266 125.181 31.422 124.701 31.518C124.221 31.626 123.651 31.68 122.991 31.68C122.079 31.68 121.269 31.494 120.561 31.122C119.865 30.75 119.319 30.198 118.923 29.466C118.539 28.722 118.347 27.816 118.347 26.748C118.347 25.692 118.521 24.786 118.869 24.03C119.229 23.274 119.727 22.692 120.363 22.284C121.011 21.876 121.761 21.672 122.613 21.672ZM122.595 22.968C121.839 22.968 121.239 23.214 120.795 23.706C120.363 24.186 120.105 24.858 120.021 25.722H124.935C124.935 25.17 124.851 24.69 124.683 24.282C124.515 23.874 124.257 23.556 123.909 23.328C123.573 23.088 123.135 22.968 122.595 22.968Z" fill="black" fill-opacity="0.5"/>
</g>
<defs>
<filter id="filter0_d_407_5304" x="0" y="0.5" width="162.5" height="48" filterUnits="userSpaceOnUse" color-interpolation-filters="sRGB">
<feFlood flood-opacity="0" result="BackgroundImageFix"/>
<feColorMatrix in="SourceAlpha" type="matrix" values="0 0 0 0 0 0 0 0 0 0 0 0 0 0 0 0 0 0 127 0" result="hardAlpha"/>
<feOffset/>
<feGaussianBlur stdDeviation="1"/>
<feComposite in2="hardAlpha" operator="out"/>
<feColorMatrix type="matrix" values="0 0 0 0 0 0 0 0 0 0 0 0 0 0 0 0 0 0 0.25 0"/>
<feBlend mode="normal" in2="BackgroundImageFix" result="effect1_dropShadow_407_5304"/>
<feBlend mode="normal" in="SourceGraphic" in2="effect1_dropShadow_407_5304" result="shape"/>
</filter>
</defs>
</svg>
